<svg xmlns="http://www.w3.org/2000/svg" viewBox="0 0 3333 3333" shape-rendering="geometricPrecision" text-rendering="geometricPrecision" image-rendering="optimizeQuality" fill-rule="evenodd" clip-rule="evenodd"><path d="M623 1901c-227 41-448 118-568 419-78 195-60 430 39 643 268-816 1207-334 603 369 442 22 722-287 766-704 21-197 38-303 81-388 23-47 55-86 98-133 145-159 306-298 464-463 297-311 931-24 1173-632 78-195 60-430-39-643-268 816-1207 334-603-369-442-22-722 287-766 704-19 183 13 339-190 548-143 143-294 288-441 428-58 56-100 90-149 114-88 44-197 57-466 105z"/></svg>